<svg width="168" height="182" viewBox="0 0 168 182" fill="none" xmlns="http://www.w3.org/2000/svg">
<path d="M99.6138 158.067H69.4292C66.5747 157.642 64.0239 156.488 61.8982 154.909C61.4731 154.606 61.1087 154.302 60.7443 153.998C60.1977 153.512 59.6511 152.966 59.1652 152.419C58.1328 151.204 57.2825 149.868 56.6144 148.471C55.9464 147.014 55.4605 145.495 55.2176 143.916V143.856C55.1568 143.491 55.0961 143.127 55.0961 142.762C55.0354 142.094 55.0354 141.366 55.0961 140.698C55.2176 139.058 55.582 137.479 56.25 135.96L67.0606 109.966H103.319L113.704 138.207C115.405 147.621 109.028 156.61 99.6138 158.067Z" fill="#E65665"/>
<path d="M74.8961 56.3383C74.8961 56.3383 60.9881 57.0671 52.789 53.3016C51.8173 52.8765 50.7241 53.666 50.9063 54.7592C51.4529 58.0388 53.2749 63.4441 59.1661 65.2054L74.8961 56.3383Z" fill="#72C1ED"/>
<path d="M92.9946 56.3383C92.9946 56.3383 106.903 57.0671 115.102 53.3016C116.073 52.8765 117.167 53.666 116.984 54.7592C116.438 58.0388 114.616 63.4441 108.725 65.2054L92.9946 56.3383Z" fill="#72C1ED"/>
<path d="M101.315 122.356H66.3321C56.1289 122.356 47.8083 114.097 47.8083 103.833L52.2419 85.1268C52.2419 67.6355 66.4536 53.4238 83.9449 53.4238C101.436 53.4238 115.648 67.6355 115.648 85.1268L119.778 103.833C119.838 114.036 111.579 122.356 101.315 122.356Z" fill="#E65665"/>
<path d="M113.947 101.099C109.271 113.124 84.4915 111.302 84.4915 111.302C84.4915 111.302 59.7122 113.124 55.0357 101.099C50.3592 89.0733 66.2107 88.466 66.2107 88.466C66.2107 88.466 56.6755 79.7204 60.6232 71.3391C62.9311 66.4197 70.705 67.27 76.7783 68.9098C81.8192 70.2459 87.1638 70.2459 92.2047 68.9098C98.278 67.3307 106.052 66.4197 108.36 71.3391C112.247 79.7811 102.772 88.466 102.772 88.466C102.772 88.466 118.624 89.0733 113.947 101.099Z" fill="#FDD79D"/>
<path d="M94.2696 100.431C94.2696 100.431 92.5691 103.468 89.3502 105.411C87.8318 106.322 86.0706 106.991 83.9449 106.991C81.3333 106.991 79.2077 105.958 77.5679 104.683C75.017 102.8 73.6809 100.371 73.6809 100.371H94.2696V100.431Z" fill="black"/>
<path d="M89.4107 105.411C87.8924 106.322 86.1311 106.99 84.0054 106.99C81.3939 106.99 79.2682 105.958 77.6284 104.682C78.9038 103.285 81.3332 101.403 83.3374 103.407C83.3374 103.468 85.706 100.674 89.4107 105.411Z" fill="#FF7464"/>
<path d="M73.924 95.9373C75.534 95.9373 76.8392 93.8164 76.8392 91.2001C76.8392 88.5838 75.534 86.4629 73.924 86.4629C72.314 86.4629 71.0088 88.5838 71.0088 91.2001C71.0088 93.8164 72.314 95.9373 73.924 95.9373Z" fill="black"/>
<path d="M93.7233 95.9373C95.3334 95.9373 96.6385 93.8164 96.6385 91.2001C96.6385 88.5838 95.3334 86.4629 93.7233 86.4629C92.1133 86.4629 90.8081 88.5838 90.8081 91.2001C90.8081 93.8164 92.1133 95.9373 93.7233 95.9373Z" fill="black"/>
<path d="M101.965 96.3916C104.796 95.1625 106.755 93.3929 106.341 92.4391C105.926 91.4853 103.296 91.7085 100.465 92.9376C97.6346 94.1667 95.6756 95.9363 96.0897 96.8901C96.5039 97.8439 99.1344 97.6207 101.965 96.3916Z" fill="#FFB18A"/>
<path d="M72.1807 96.8822C72.5948 95.9284 70.6358 94.1587 67.8051 92.9296C64.9744 91.7005 62.344 91.4774 61.9298 92.4312C61.5157 93.385 63.4747 95.1546 66.3053 96.3837C69.136 97.6128 71.7665 97.836 72.1807 96.8822Z" fill="#FFB18A"/>
<path d="M60.0162 64.356L53.5177 81.1792C53.1533 81.3614 52.7889 81.4829 52.4245 81.6043C44.7113 84.0337 38.8201 76.8064 38.6379 76.5634C47.748 75.7132 60.0162 64.356 60.0162 64.356Z" fill="#E65665"/>
<path d="M107.813 64.356C107.813 64.356 120.081 75.7132 129.191 76.6242C129.191 76.6242 122.632 84.8232 114.311 81.2399L107.813 64.356Z" fill="#E65665"/>
<path d="M74.8953 89.8639C75.432 89.8639 75.867 89.4288 75.867 88.8921C75.867 88.3555 75.432 87.9204 74.8953 87.9204C74.3586 87.9204 73.9236 88.3555 73.9236 88.8921C73.9236 89.4288 74.3586 89.8639 74.8953 89.8639Z" fill="white"/>
<path d="M94.7554 89.8639C95.2921 89.8639 95.7272 89.4288 95.7272 88.8921C95.7272 88.3555 95.2921 87.9204 94.7554 87.9204C94.2188 87.9204 93.7837 88.3555 93.7837 88.8921C93.7837 89.4288 94.2188 89.8639 94.7554 89.8639Z" fill="white"/>
<path d="M70.827 98.7922C78.0386 98.7922 83.8847 92.9461 83.8847 85.7345C83.8847 78.5229 78.0386 72.6768 70.827 72.6768C63.6154 72.6768 57.7693 78.5229 57.7693 85.7345C57.7693 92.9461 63.6154 98.7922 70.827 98.7922Z" stroke="white" stroke-width="1.82201" stroke-miterlimit="10"/>
<path d="M96.8812 98.7922C104.093 98.7922 109.939 92.9461 109.939 85.7345C109.939 78.5229 104.093 72.6768 96.8812 72.6768C89.6696 72.6768 83.8235 78.5229 83.8235 85.7345C83.8235 92.9461 89.6696 98.7922 96.8812 98.7922Z" stroke="white" stroke-width="1.82201" stroke-miterlimit="10"/>
<path d="M52.4845 81.6044C44.7714 84.0338 38.8802 76.8065 38.698 76.5635C38.8802 76.6243 43.1316 78.9929 49.0227 76.5635C55.0353 74.1342 52.4845 81.6044 52.4845 81.6044Z" fill="#FDD79D"/>
<path d="M115.345 81.6044C123.058 84.0338 128.949 76.8065 129.131 76.5635C128.949 76.6243 124.698 78.9929 118.806 76.5635C112.794 74.1342 115.345 81.6044 115.345 81.6044Z" fill="#FDD79D"/>
<path d="M79.3287 65.2056C79.3287 65.2056 72.3443 70.7323 77.6889 71.5826C82.9727 72.4936 85.5843 69.5784 85.5843 69.5784C85.5843 69.5784 83.6408 72.9795 86.3131 73.2224C88.9854 73.4653 101.193 65.2056 101.193 65.2056" fill="#E65665"/>
<path d="M84.4918 91.2002H83.2771C82.1232 91.2002 81.2122 90.2892 81.2122 89.1352V85.4912C81.2122 84.3373 82.1232 83.4263 83.2771 83.4263H84.4918C85.6457 83.4263 86.5567 84.3373 86.5567 85.4912V89.1352C86.496 90.2892 85.585 91.2002 84.4918 91.2002Z" fill="white"/>
<path d="M61.3269 112.153C61.9949 110.615 60.2666 108.382 57.4667 107.166C54.6668 105.951 51.8555 106.212 51.1875 107.751C50.5195 109.289 52.2478 111.522 55.0477 112.737C57.8476 113.953 60.6589 113.692 61.3269 112.153Z" fill="#FB817A"/>
<path d="M60.5353 117.264C60.8559 116.526 60.0433 115.462 58.7203 114.887C57.3972 114.313 56.0648 114.445 55.7441 115.184C55.4235 115.922 56.2361 116.987 57.5591 117.561C58.8822 118.136 60.2146 118.003 60.5353 117.264Z" fill="#FB817A"/>
<path d="M113.29 112.693C116.09 111.477 117.819 109.244 117.151 107.706C116.483 106.167 113.671 105.906 110.871 107.121C108.072 108.337 106.343 110.57 107.011 112.108C107.679 113.647 110.491 113.908 113.29 112.693Z" fill="#FB817A"/>
<path d="M110.79 117.571C112.113 116.997 112.926 115.933 112.605 115.194C112.284 114.456 110.952 114.323 109.629 114.897C108.306 115.472 107.493 116.536 107.814 117.275C108.135 118.013 109.467 118.146 110.79 117.571Z" fill="#FB817A"/>
<path d="M76.7168 152.48V173.616" stroke="#E65665" stroke-width="7.89537" stroke-miterlimit="10" stroke-linecap="round" stroke-linejoin="round"/>
<path d="M72.0397 171.064H65.359C64.5695 171.064 63.9622 171.672 63.9622 172.461H72.0397V171.064Z" fill="#D8EEFB"/>
<path d="M73.0716 166.753H72.3428C69.2454 166.753 66.6946 169.243 66.6946 172.401H78.6591C78.6591 169.243 76.169 166.753 73.0716 166.753Z" fill="#D8EEFB"/>
<path d="M72.5859 172.34H65.4801C61.4109 172.34 58.0706 175.681 58.0706 179.75V181.147H72.5859V172.34Z" fill="#72C1ED"/>
<path d="M84.8544 181.146H57.2206C56.6133 181.146 56.0667 180.66 56.0667 179.992V178.96C56.0667 178.352 56.5525 177.806 57.2206 177.806H84.8544C85.4617 177.806 86.0083 178.292 86.0083 178.96V179.992C86.0083 180.66 85.4617 181.146 84.8544 181.146Z" fill="#D8EEFB"/>
<path d="M81.2711 170.519H74.5297C70.4605 170.519 67.1809 173.798 67.1809 177.867H84.9151V174.163C84.9151 172.158 83.2753 170.519 81.2711 170.519Z" fill="#008FC5"/>
<path d="M93.2363 152.48V173.616" stroke="#E65665" stroke-width="7.89537" stroke-miterlimit="10" stroke-linecap="round" stroke-linejoin="round"/>
<path d="M97.9731 171.064H104.654C105.443 171.064 106.051 171.672 106.051 172.461H97.9731V171.064Z" fill="#D8EEFB"/>
<path d="M96.9406 166.753H97.6694C100.767 166.753 103.318 169.243 103.318 172.402H91.3531C91.2924 169.243 93.8432 166.753 96.9406 166.753Z" fill="#D8EEFB"/>
<path d="M97.4268 172.341H104.533C108.602 172.341 111.942 175.681 111.942 179.75V181.147H97.4268V172.341Z" fill="#72C1ED"/>
<path d="M85.098 181.147H112.732C113.339 181.147 113.886 180.661 113.886 179.993V178.96C113.886 178.353 113.4 177.806 112.732 177.806H85.098C84.4907 177.806 83.9441 178.292 83.9441 178.96V179.993C84.0048 180.661 84.4907 181.147 85.098 181.147Z" fill="#D8EEFB"/>
<path d="M88.6809 170.519H95.4223C99.4915 170.519 102.771 173.799 102.771 177.868H85.0369V174.163C85.0369 172.159 86.6767 170.519 88.6809 170.519Z" fill="#008FC5"/>
<path d="M80.2392 12.2455C72.2831 7.56896 68.2747 16.9219 68.2747 16.9219C68.2747 16.9219 79.0853 17.4078 83.3366 26.943" stroke="#FDD79D" stroke-width="6.07336" stroke-miterlimit="10" stroke-linecap="round" stroke-linejoin="round"/>
<path d="M74.7732 33.6238C74.7732 33.6238 75.8057 22.6918 65.481 21.2949C65.481 21.2949 67.303 28.34 65.481 35.5673" stroke="#FDD79D" stroke-width="6.07336" stroke-miterlimit="10" stroke-linecap="round" stroke-linejoin="round"/>
<path d="M61.0475 129.827C35.4786 118.652 12.9464 97.6988 4.68667 70.4294C1.64999 60.3476 0.0101793 49.7192 1.46779 39.0908C5.17254 10.4853 33.4137 -4.75885 60.3187 2.83285C65.2381 4.29046 70.3397 6.78056 74.7733 10.789C85.5838 21.1137 71.5544 37.0866 59.9543 27.7336C56.371 23.6645 51.0264 21.9032 45.5604 21.4781C37.1184 20.8707 28.4942 23.7252 23.089 30.2845C17.1371 37.5118 15.9224 47.4721 16.6512 56.6429C18.5339 85.1877 38.6368 108.813 62.9302 122.417L64.0234 123.025L64.2056 123.085C68.3355 125.333 65.5417 131.467 61.0475 129.827Z" fill="#E65665"/>
<path d="M87.771 12.2455C95.7271 7.56896 99.7355 16.9219 99.7355 16.9219C99.7355 16.9219 88.9249 17.4078 84.6736 26.943" stroke="#FDD79D" stroke-width="6.07336" stroke-miterlimit="10" stroke-linecap="round" stroke-linejoin="round"/>
<path d="M93.2977 33.6248C93.2977 33.6248 92.2652 22.6928 102.59 21.2959C102.59 21.2959 100.768 28.341 102.59 35.5683" stroke="#FDD79D" stroke-width="6.07336" stroke-miterlimit="10" stroke-linecap="round" stroke-linejoin="round"/>
<path d="M103.987 122.903C122.632 112.76 139.213 96.6661 146.926 76.7455C150.509 67.271 152.27 56.6427 151.299 46.6216C150.448 37.9974 146.44 29.2518 138.727 25.0004C131.803 20.9313 122.086 20.2025 114.555 23.2392C112.49 24.0287 110.425 25.3041 109.028 26.8224C104.837 31.4382 97.7316 31.7419 93.1158 27.5512C88.0142 22.9962 88.3179 14.6757 93.6624 10.4243C101.983 3.31851 111.883 0.88916 122.086 0.88916C136.419 1.01063 150.934 7.63061 159.133 19.6559C167.029 30.8916 168.304 45.2854 166.118 58.4039C163.567 74.6198 156.218 90.0461 145.286 102.193C134.597 114.097 121.539 123.51 106.902 129.827C102.469 131.466 99.6751 125.089 103.987 122.903Z" fill="#E65665"/>
</svg>
