<svg width="182" height="128" viewBox="0 0 182 128" fill="none" xmlns="http://www.w3.org/2000/svg">
<path d="M109.327 102.645H78.9168C76.041 102.216 73.4712 101.054 71.3296 99.4629C70.9013 99.157 70.5342 98.8511 70.167 98.5451C69.6163 98.0556 69.0657 97.5049 68.5762 96.9543C67.536 95.7305 66.6793 94.3844 66.0062 92.9771C65.3332 91.5697 64.8437 89.9789 64.599 88.388V88.3268C64.5378 87.9597 64.4766 87.5925 64.4766 87.2254C64.4154 86.5523 64.4154 85.8181 64.4766 85.145C64.5989 83.493 64.9661 81.9021 65.6391 80.3724L76.5306 54.1841H113.06L123.523 82.6363C125.297 92.0592 118.872 101.115 109.327 102.645Z" fill="#E65665"/>
<path d="M104.004 90.5293V118.064" stroke="#E65665" stroke-width="7.95439" stroke-miterlimit="10" stroke-linecap="round" stroke-linejoin="round"/>
<path d="M95.8052 127.486H129.825C129.825 126.263 129.764 125.161 129.52 124.182C128.235 117.941 122.85 115.799 118.139 115.188C114.161 114.637 110.735 115.188 110.735 115.188C99.354 115.188 95.8052 127.486 95.8052 127.486Z" fill="#72C1ED"/>
<path d="M118.933 115.31C118.933 115.31 118.199 111.394 111.836 111.027C105.472 110.659 103.575 114.575 103.942 116.778H123.339C123.645 116.778 123.767 116.35 123.523 116.227C122.727 115.677 121.259 115.004 118.933 115.31Z" fill="#D8EEFB"/>
<path d="M115.202 127.486C115.202 127.486 114.835 116.35 105.473 116.167H98.7425C96.295 116.167 94.2759 118.186 94.2759 120.633V127.486H115.202Z" fill="#008FC5"/>
<path d="M94.6422 124.182H129.642C130.315 124.182 130.865 124.733 130.865 125.406V126.324C130.865 126.997 130.315 127.547 129.642 127.547H94.6422C93.9691 127.547 93.4185 126.997 93.4185 126.324V125.406C93.4796 124.733 93.9691 124.182 94.6422 124.182Z" fill="#D8EEFB"/>
<path d="M85.0972 90.5293V118.064" stroke="#E65665" stroke-width="7.95439" stroke-miterlimit="10" stroke-linecap="round" stroke-linejoin="round"/>
<path d="M96.723 127.486H62.7026C62.7026 126.263 62.7638 125.161 63.0086 124.182C64.2935 117.941 69.6781 115.799 74.3895 115.188C78.3667 114.637 81.7932 115.188 81.7932 115.188C93.1741 115.188 96.723 127.486 96.723 127.486Z" fill="#72C1ED"/>
<path d="M73.5943 115.31C73.5943 115.31 74.3285 111.394 80.692 111.027C87.0555 110.659 88.9524 114.575 88.5852 116.778H69.1888C68.8828 116.778 68.7604 116.35 69.0052 116.227C69.8006 115.677 71.2691 115.004 73.5943 115.31Z" fill="#D8EEFB"/>
<path d="M77.2656 127.486C77.2656 127.486 77.6328 116.35 86.9945 116.167H93.7251C96.1726 116.167 98.1918 118.186 98.1918 120.633V127.486H77.2656Z" fill="#008FC5"/>
<path d="M97.8856 124.182H62.8864C62.2133 124.182 61.6626 124.733 61.6626 125.406V126.324C61.6626 126.997 62.2133 127.547 62.8864 127.547H97.8856C98.5587 127.547 99.1094 126.997 99.1094 126.324V125.406C99.0482 124.733 98.5587 124.182 97.8856 124.182Z" fill="#D8EEFB"/>
<path d="M100.454 92.9164H85.8305C82.9547 92.9164 80.5684 90.5912 80.5684 87.6542C80.5684 84.7784 82.8935 82.3921 85.8305 82.3921H100.454C103.33 82.3921 105.716 84.7172 105.716 87.6542C105.716 90.5912 103.391 92.9164 100.454 92.9164Z" fill="#FDD79D"/>
<path d="M70.5917 12.4171C70.5917 12.4171 56.8795 15.3917 48.1172 12.9736C47.0821 12.708 46.1227 13.67 46.4807 14.7276C47.5548 17.9005 50.2411 22.9808 56.3842 23.7792L70.5917 12.4171Z" fill="#72C1ED"/>
<path d="M88.6493 9.47933C88.6493 9.47933 102.597 7.95417 110.141 2.88342C111.039 2.30347 112.254 2.91175 112.249 4.02832C112.236 7.378 111.299 13.0478 105.726 15.7522L88.6493 9.47933Z" fill="#72C1ED"/>
<path d="M107.604 73.7818L72.8168 79.4409C62.6707 81.0915 53.0606 74.2239 51.4002 64.0174L52.7829 44.6989C49.9534 27.3055 61.7865 10.8744 79.1799 8.04488C96.5733 5.21534 113.004 17.0485 115.834 34.4419L122.967 52.375C124.678 62.5114 117.75 72.1313 107.604 73.7818Z" fill="#E65665"/>
<path d="M116.726 50.6C114.021 63.3145 89.0858 65.5112 89.0858 65.5112C89.0858 65.5112 64.74 71.3315 58.1443 60.13C51.5487 48.9286 67.2132 45.7604 67.2132 45.7604C67.2132 45.7604 56.3167 38.6062 58.8865 29.6332C60.3856 24.368 68.2535 23.956 74.5582 24.6041C79.787 25.1173 85.1017 24.2527 89.8982 22.1086C95.6821 19.5559 103.265 17.3924 106.356 21.911C111.587 29.6769 103.57 39.8459 103.57 39.8459C103.57 39.8459 119.431 37.8855 116.726 50.6Z" fill="#FDD79D"/>
<path d="M67.1476 52.2238C69.9843 50.9516 71.8019 48.8454 71.2072 47.5196C70.6126 46.1937 67.8309 46.1503 64.9942 47.4225C62.1575 48.6947 60.34 50.8009 60.9346 52.1267C61.5292 53.4526 64.3108 53.4961 67.1476 52.2238Z" fill="#FFB18A"/>
<path d="M111.332 43.8391C111.475 42.3931 109.084 40.9717 105.99 40.6642C102.897 40.3567 100.272 41.2796 100.128 42.7256C99.9847 44.1715 102.376 45.593 105.47 45.9005C108.564 46.208 111.188 45.285 111.332 43.8391Z" fill="#FFB18A"/>
<path d="M57.1532 22.7868L53.4125 40.5671C53.0796 40.8072 52.7369 40.987 52.3942 41.1667C45.1172 44.8302 38.0898 38.5964 37.8693 38.3843C46.7908 36.065 57.1532 22.7868 57.1532 22.7868Z" fill="#E65665"/>
<path d="M104.682 15.0542C104.682 15.0542 118.719 24.3632 127.925 23.7954C127.925 23.7954 122.729 33.0096 113.876 30.7924L104.682 15.0542Z" fill="#E65665"/>
<path d="M52.394 41.1665C45.117 44.83 38.0896 38.5962 37.8691 38.3841C38.0601 38.415 42.6709 40.0826 48.1361 36.7138C53.722 33.3254 52.394 41.1665 52.394 41.1665Z" fill="#FDD79D"/>
<path d="M114.962 30.988C123.025 32.156 127.714 24.0162 127.856 23.7451C127.684 23.835 123.84 26.8781 117.589 25.4153C111.217 23.9722 114.962 30.988 114.962 30.988Z" fill="#FDD79D"/>
<path d="M76.4951 20.5079C76.4951 20.5079 70.4439 27.1336 75.8961 27.1145C81.3483 27.0955 83.423 23.8443 83.423 23.8443C83.423 23.8443 82.0406 27.5408 84.7372 27.3501C87.4437 27.2198 98.227 16.9106 98.227 16.9106" fill="#E65665"/>
<path d="M66.2037 70.0587C66.6191 68.4209 64.5393 66.4803 61.5584 65.7243C58.5775 64.9682 55.8243 65.6831 55.4089 67.321C54.9935 68.9589 57.0732 70.8995 60.0541 71.6555C63.0351 72.4115 65.7883 71.6966 66.2037 70.0587Z" fill="#FB817A"/>
<path d="M66.2285 75.3286C66.4279 74.5425 65.4476 73.6155 64.0391 73.2583C62.6305 72.9011 61.327 73.2488 61.1276 74.035C60.9282 74.8212 61.9085 75.7481 63.317 76.1053C64.7256 76.4626 66.0291 76.1148 66.2285 75.3286Z" fill="#FB817A"/>
<path d="M117.907 62.2284C120.495 60.5665 121.852 58.0667 120.939 56.645C120.026 55.2232 117.188 55.4179 114.601 57.0798C112.013 58.7417 110.656 61.2414 111.569 62.6632C112.482 64.0849 115.32 63.8902 117.907 62.2284Z" fill="#FB817A"/>
<path d="M116.262 67.4527C117.485 66.6675 118.121 65.4777 117.682 64.7952C117.244 64.1128 115.898 64.1961 114.675 64.9814C113.452 65.7667 112.816 66.9566 113.255 67.639C113.693 68.3214 115.039 68.238 116.262 67.4527Z" fill="#FB817A"/>
<path d="M71.3203 50.0518C71.3203 50.0518 72.4039 55.9507 78.3225 54.9879C84.9658 53.9071 83.6406 48.0475 83.6406 48.0475" stroke="black" stroke-width="1.22375" stroke-miterlimit="10" stroke-linecap="round" stroke-linejoin="round"/>
<path d="M87.3862 47.439C87.3862 47.439 88.4698 53.3379 94.3884 52.3751C101.032 51.2943 99.7066 45.4347 99.7066 45.4347" stroke="black" stroke-width="1.22375" stroke-miterlimit="10" stroke-linecap="round" stroke-linejoin="round"/>
<path d="M91.521 54.9494L90.4354 54.754C89.9831 54.6416 89.5 54.7202 89.0463 54.98L88.653 55.23C88.4311 55.3901 88.1896 55.4294 87.9283 55.3479L87.476 55.2354C87.0238 55.123 86.5407 55.2016 86.087 55.4614L85.6937 55.7114C85.462 55.8111 85.2204 55.8504 84.969 55.8293L84.5168 55.7168C84.0646 55.6044 83.5814 55.683 83.1881 55.933L82.16 56.4722C81.8777 56.6421 81.7456 56.9736 81.9155 57.2559C82.0152 57.4877 82.2764 57.5691 82.518 57.5298C82.5784 57.52 82.6388 57.5102 82.6894 57.44L83.5967 56.9204C83.8285 56.8207 84.07 56.7814 84.3214 56.8025L84.7737 56.9149C85.2259 57.0273 85.709 56.9487 86.1627 56.6889L86.556 56.439C86.7878 56.3393 87.0195 56.2396 87.2807 56.3211L87.733 56.4335C88.1852 56.5459 88.6683 56.4673 89.122 56.2075L89.5153 55.9576C89.7471 55.8579 89.9886 55.8186 90.24 55.8397L91.2049 56.0547C91.3355 56.0954 91.5167 56.066 91.6276 55.9859C91.7386 55.9059 91.8397 55.7654 91.8805 55.6348C92.0125 55.3034 91.8427 55.021 91.521 54.9494Z" fill="black"/>
<path d="M74.4642 61.753C81.6354 60.5864 86.5031 53.8272 85.3365 46.656C84.1699 39.4848 77.4108 34.6171 70.2395 35.7837C63.0683 36.9503 58.2006 43.7094 59.3672 50.8806C60.5338 58.0519 67.293 62.9196 74.4642 61.753Z" stroke="white" stroke-width="1.83563" stroke-miterlimit="10"/>
<path d="M100.433 57.5279C107.605 56.3613 112.472 49.6021 111.306 42.4309C110.139 35.2597 103.38 30.392 96.2088 31.5586C89.0375 32.7252 84.1698 39.4843 85.3364 46.6555C86.5031 53.8268 93.2622 58.6945 100.433 57.5279Z" stroke="white" stroke-width="1.83563" stroke-miterlimit="10"/>
<path d="M86.825 51.9933L85.6171 52.1898C84.4696 52.3765 83.4163 51.6179 83.2297 50.4704L82.6402 46.8468C82.4535 45.6993 83.2121 44.6461 84.3596 44.4594L85.5674 44.2629C86.7149 44.0762 87.7682 44.8348 87.9549 45.9822L88.5444 49.6059C88.731 50.7533 87.9725 51.8066 86.825 51.9933Z" fill="white"/>
<path d="M167.087 56.9377C167.087 56.9377 177.917 62.1998 178.345 54.123" stroke="#FDD79D" stroke-width="6.11876" stroke-miterlimit="10" stroke-linecap="round" stroke-linejoin="round"/>
<path d="M163.905 63.5464C163.905 63.5464 173.695 72.8469 178.406 66.667" stroke="#FDD79D" stroke-width="6.11876" stroke-miterlimit="10" stroke-linecap="round" stroke-linejoin="round"/>
<path d="M158.704 67.1558C158.704 67.1558 163.11 74.8042 170.33 74.8042" stroke="#FDD79D" stroke-width="6.11876" stroke-miterlimit="10" stroke-linecap="round" stroke-linejoin="round"/>
<path d="M159.928 52.0422C159.928 52.0422 161.58 47.2695 169.351 47.2695" stroke="#FDD79D" stroke-width="6.11876" stroke-miterlimit="10" stroke-linecap="round" stroke-linejoin="round"/>
<path d="M170.331 64.8917C167.944 71.9283 159.011 74.7429 152.953 70.4598C152.158 69.9091 151.668 69.7255 151.118 69.1748C150.689 68.6853 150.139 68.9301 149.404 69.2972C148.303 69.9091 146.896 71.194 145.427 72.8461C141.817 76.8845 138.758 82.0242 134.291 85.8179C130.008 89.3667 123.4 90.5293 118.811 86.6745C113.671 82.2078 112.631 75.1712 111.958 68.8689C111.713 65.0141 116.914 63.9127 118.321 67.4004C119.728 70.215 121.442 73.3356 123.644 75.5383C124.623 73.9475 125.908 71.7447 126.826 69.8479C131.844 59.0789 138.452 48.0039 152.403 48.0039C156.196 48.0039 159.929 48.9829 163.294 50.2678C169.413 52.4094 172.472 58.9565 170.331 64.8917Z" fill="#E65665"/>
<path d="M165.619 53.8169C167.455 54.6735 167.455 56.2032 165.619 57.427C163.11 59.079 159.133 61.0982 155.095 60.4864C151.546 59.9357 152.525 57.121 155.645 56.5704C155.645 56.5704 151.179 55.7137 154.116 53.4498C156.747 51.3082 162.07 52.1648 165.619 53.8169Z" fill="#FDD79D"/>
<path d="M14.9128 66.0544C14.9128 66.0544 4.08261 71.3165 3.6543 63.2397" stroke="#FDD79D" stroke-width="6.11876" stroke-miterlimit="10" stroke-linecap="round" stroke-linejoin="round"/>
<path d="M18.0948 72.6626C18.0948 72.6626 8.30471 81.9631 3.59326 75.7832" stroke="#FDD79D" stroke-width="6.11876" stroke-miterlimit="10" stroke-linecap="round" stroke-linejoin="round"/>
<path d="M23.2961 76.2729C23.2961 76.2729 18.8906 83.9214 11.6704 83.9214" stroke="#FDD79D" stroke-width="6.11876" stroke-miterlimit="10" stroke-linecap="round" stroke-linejoin="round"/>
<path d="M22.0728 61.1594C22.0728 61.1594 20.4207 56.3867 12.6499 56.3867" stroke="#FDD79D" stroke-width="6.11876" stroke-miterlimit="10" stroke-linecap="round" stroke-linejoin="round"/>
<path d="M11.6088 74.0089C13.9951 81.0455 22.9285 83.8601 28.9861 79.5769C29.7815 79.0263 30.271 78.8427 30.8217 78.292C31.2501 77.8025 31.8008 78.0473 32.535 78.4144C33.6364 79.0263 35.0437 80.3112 36.5122 81.9633C40.1223 86.0017 43.1816 91.1414 47.6483 94.935C51.9315 98.4839 58.5398 99.6465 63.1288 95.7917C68.2686 91.325 69.3088 84.2884 69.9818 77.9861C70.2266 74.1313 65.0256 73.0299 63.6183 76.5176C62.211 79.3322 60.4978 82.4528 58.295 84.6555C57.316 83.0647 56.0311 80.8619 55.1133 78.9651C50.0959 68.196 43.4876 57.1211 29.5368 57.1211C25.7432 57.1211 22.0107 58.1001 18.6454 59.385C12.5878 61.5266 9.46724 68.0737 11.6088 74.0089Z" fill="#E65665"/>
<path d="M16.3816 62.9337C14.546 63.7903 14.546 65.32 16.3816 66.5437C18.8903 68.1958 22.8675 70.215 26.9058 69.6031C30.4547 69.0524 29.4758 66.2378 26.3552 65.6871C26.3552 65.6871 30.8219 64.8305 27.8849 62.5665C25.1927 60.4862 19.8693 61.2816 16.3816 62.9337Z" fill="#FDD79D"/>
<path d="M63.4677 32.2344C63.4677 34.2536 61.8768 35.8445 59.8576 35.8445C57.8385 35.8445 56.2476 34.2536 56.2476 32.2344C56.2476 31.5614 56.4312 30.9495 56.7371 30.3988L59.8576 22.9951L62.9782 30.3988C63.2841 30.8883 63.4677 31.5614 63.4677 32.2344Z" fill="white"/>
</svg>
