<svg width="192" height="128" viewBox="0 0 192 128" fill="none" xmlns="http://www.w3.org/2000/svg">
<path d="M110.945 104.868H80.8211C77.9723 104.444 75.4266 103.293 73.3052 101.717C72.8809 101.414 72.5172 101.111 72.1536 100.807C71.608 100.323 71.0626 99.7771 70.5777 99.2316C69.5473 98.0193 68.6987 96.6859 68.0319 95.2918C67.3652 93.8371 66.8803 92.3218 66.6379 90.7459V90.6852C66.5773 90.3216 66.5167 89.9579 66.5167 89.5942C66.456 88.9275 66.456 88.2002 66.5167 87.5334C66.6379 85.8969 67.0016 84.321 67.6683 82.8057L78.4572 56.8638H114.643L125.007 85.0483C126.704 94.3826 120.34 103.353 110.945 104.868Z" fill="#E65665"/>
<path d="M86.2762 3.28265C86.2762 3.28265 72.3961 4.01 64.2134 0.252054C63.2436 -0.17223 62.1526 0.615741 62.3345 1.70676C62.88 4.9798 64.6983 10.3743 70.5777 12.132L86.2762 3.28265Z" fill="#72C1ED"/>
<path d="M104.338 3.28265C104.338 3.28265 118.218 4.01 126.401 0.252054C127.37 -0.17223 128.461 0.615741 128.28 1.70676C127.734 4.9798 125.916 10.3743 120.036 12.132L104.338 3.28265Z" fill="#72C1ED"/>
<path d="M112.643 69.1676H77.7308C67.548 69.1676 59.2441 60.9244 59.2441 50.681L63.6688 32.0125C63.6688 14.5563 77.852 0.373047 95.3083 0.373047C112.765 0.373047 126.948 14.5563 126.948 32.0125L131.069 50.681C131.13 60.9244 122.887 69.1676 112.643 69.1676Z" fill="#E65665"/>
<path d="M125.25 47.9539C120.583 59.9551 95.8529 58.1367 95.8529 58.1367C95.8529 58.1367 71.1232 59.9551 66.4561 47.9539C61.789 35.9527 77.6087 35.3466 77.6087 35.3466C77.6087 35.3466 68.0926 26.6185 72.0324 18.2541C74.3357 13.3445 82.094 14.193 88.1552 15.8296C93.186 17.163 98.5198 17.163 103.551 15.8296C109.612 14.2537 117.37 13.3445 119.673 18.2541C123.553 26.6791 114.097 35.3466 114.097 35.3466C114.097 35.3466 129.917 35.9527 125.25 47.9539Z" fill="#FDD79D"/>
<path d="M105.612 47.2872C105.612 47.2872 103.915 50.3178 100.702 52.2574C99.187 53.1666 97.4293 53.8333 95.3079 53.8333C92.7015 53.8333 90.5801 52.8029 88.9436 51.53C86.3979 49.6511 85.0645 47.2266 85.0645 47.2266H105.612V47.2872Z" fill="black"/>
<path d="M100.763 52.2574C99.2473 53.1665 97.4896 53.8333 95.3682 53.8333C92.7618 53.8333 90.6404 52.8029 89.0039 51.53C90.2768 50.1359 92.7012 48.2569 94.7014 50.2571C94.7014 50.3178 97.0653 47.5902 100.763 52.2574Z" fill="#FF7464"/>
<path d="M85.3669 42.8622C86.9737 42.8622 88.2763 40.7455 88.2763 38.1345C88.2763 35.5234 86.9737 33.4067 85.3669 33.4067C83.7601 33.4067 82.4575 35.5234 82.4575 38.1345C82.4575 40.7455 83.7601 42.8622 85.3669 42.8622Z" fill="black"/>
<path d="M105.066 42.8622C106.673 42.8622 107.976 40.7455 107.976 38.1345C107.976 35.5234 106.673 33.4067 105.066 33.4067C103.459 33.4067 102.157 35.5234 102.157 38.1345C102.157 40.7455 103.459 42.8622 105.066 42.8622Z" fill="black"/>
<path d="M113.29 43.2491C116.115 42.0224 118.07 40.2564 117.657 39.3045C117.244 38.3526 114.618 38.5753 111.793 39.8019C108.968 41.0286 107.013 42.7946 107.427 43.7466C107.84 44.6985 110.465 44.4757 113.29 43.2491Z" fill="#FFB18A"/>
<path d="M83.5632 43.7512C83.9765 42.7993 82.0214 41.0333 79.1964 39.8066C76.3714 38.58 73.7462 38.3572 73.3329 39.3091C72.9195 40.2611 74.8746 42.0271 77.6996 43.2538C80.5246 44.4804 83.1498 44.7031 83.5632 43.7512Z" fill="#FFB18A"/>
<path d="M71.4267 11.3438L64.9412 28.1332C64.5776 28.3151 64.2139 28.4363 63.8502 28.5575C56.1525 30.982 50.2731 23.7692 50.0913 23.5267C59.1831 22.6176 71.4267 11.3438 71.4267 11.3438Z" fill="#E65665"/>
<path d="M119.128 11.3438C119.128 11.3438 131.372 22.6782 140.463 23.5873C140.463 23.5873 133.917 31.77 125.613 28.1939L119.128 11.3438Z" fill="#E65665"/>
<path d="M86.2765 36.7404C86.8121 36.7404 87.2462 36.3062 87.2462 35.7706C87.2462 35.235 86.8121 34.8008 86.2765 34.8008C85.7409 34.8008 85.3066 35.235 85.3066 35.7706C85.3066 36.3062 85.7409 36.7404 86.2765 36.7404Z" fill="white"/>
<path d="M106.096 36.7404C106.632 36.7404 107.066 36.3062 107.066 35.7706C107.066 35.235 106.632 34.8008 106.096 34.8008C105.561 34.8008 105.126 35.235 105.126 35.7706C105.126 36.3062 105.561 36.7404 106.096 36.7404Z" fill="white"/>
<path d="M82.2157 45.6506C89.4128 45.6506 95.2472 39.8161 95.2472 32.619C95.2472 25.4218 89.4128 19.5874 82.2157 19.5874C75.0185 19.5874 69.1841 25.4218 69.1841 32.619C69.1841 39.8161 75.0185 45.6506 82.2157 45.6506Z" stroke="white" stroke-width="1.81836" stroke-miterlimit="10"/>
<path d="M108.218 45.6506C115.415 45.6506 121.249 39.8161 121.249 32.619C121.249 25.4218 115.415 19.5874 108.218 19.5874C101.02 19.5874 95.186 25.4218 95.186 32.619C95.186 39.8161 101.02 45.6506 108.218 45.6506Z" stroke="white" stroke-width="1.81836" stroke-miterlimit="10"/>
<path d="M63.9103 28.5576C56.2126 30.982 50.3332 23.7692 50.1514 23.5268C50.3332 23.5874 54.576 25.9513 60.4554 23.5268C66.456 21.0417 63.9103 28.5576 63.9103 28.5576Z" fill="#FDD79D"/>
<path d="M126.644 28.5576C134.342 30.982 140.221 23.7692 140.403 23.5268C140.221 23.5874 135.979 25.9513 130.099 23.5268C124.099 21.0417 126.644 28.5576 126.644 28.5576Z" fill="#FDD79D"/>
<path d="M90.7006 12.1319C90.7006 12.1319 83.7302 17.6476 89.064 18.4962C94.3373 19.4054 96.9436 16.496 96.9436 16.496C96.9436 16.496 95.004 19.8903 97.6709 20.1327C100.338 20.3752 112.521 12.0713 112.521 12.0713" fill="#E65665"/>
<path d="M95.8527 38.1348H94.6404C93.4888 38.1348 92.5796 37.2256 92.5796 36.074V32.4373C92.5796 31.2857 93.4888 30.3765 94.6404 30.3765H95.8527C97.0043 30.3765 97.9134 31.2857 97.9134 32.4373V36.074C97.8528 37.2256 96.9437 38.1348 95.8527 38.1348Z" fill="white"/>
<path d="M72.7857 59.0162C73.4523 57.4808 71.7275 55.2526 68.9332 54.0393C66.1389 52.826 63.3332 53.087 62.6666 54.6224C61.9999 56.1577 63.7247 58.3859 66.519 59.5993C69.3133 60.8126 72.119 60.5515 72.7857 59.0162Z" fill="#FB817A"/>
<path d="M71.9405 64.0919C72.2605 63.355 71.4495 62.2928 70.1292 61.7194C68.8088 61.1461 67.479 61.2788 67.159 62.0157C66.839 62.7527 67.65 63.8149 68.9704 64.3882C70.2907 64.9615 71.6205 64.8289 71.9405 64.0919Z" fill="#FB817A"/>
<path d="M124.616 59.5715C127.41 58.3582 129.135 56.13 128.468 54.5947C127.802 53.0593 124.996 52.7983 122.202 54.0116C119.407 55.2249 117.683 57.4531 118.349 58.9885C119.016 60.5238 121.821 60.7849 124.616 59.5715Z" fill="#FB817A"/>
<path d="M122.096 64.386C123.416 63.8127 124.227 62.7505 123.907 62.0136C123.587 61.2766 122.258 61.144 120.937 61.7173C119.617 62.2906 118.806 63.3528 119.126 64.0898C119.446 64.8267 120.776 64.9594 122.096 64.386Z" fill="#FB817A"/>
<path d="M88.0938 99.231V120.385" stroke="#E65665" stroke-width="7.87956" stroke-miterlimit="10" stroke-linecap="round" stroke-linejoin="round"/>
<path d="M83.4266 117.779H76.7593C75.9713 117.779 75.3652 118.385 75.3652 119.173H83.4266V117.779Z" fill="#D8EEFB"/>
<path d="M84.457 113.476H83.7297C80.6385 113.476 78.0928 115.961 78.0928 119.112H90.0333C90.0333 115.961 87.5482 113.476 84.457 113.476Z" fill="#D8EEFB"/>
<path d="M83.9716 119.052H76.88C72.819 119.052 69.4854 122.385 69.4854 126.446V127.84H83.9716V119.052Z" fill="#72C1ED"/>
<path d="M96.2159 127.901H68.6374C68.0313 127.901 67.4858 127.416 67.4858 126.749V125.719C67.4858 125.112 67.9707 124.567 68.6374 124.567H96.2159C96.822 124.567 97.3675 125.052 97.3675 125.719V126.749C97.3675 127.355 96.822 127.901 96.2159 127.901Z" fill="#D8EEFB"/>
<path d="M92.6401 117.293H85.9122C81.8512 117.293 78.5781 120.566 78.5781 124.627H96.2768V120.93C96.2768 118.93 94.6403 117.293 92.6401 117.293Z" fill="#008FC5"/>
<path d="M104.642 99.231V120.385" stroke="#E65665" stroke-width="7.87956" stroke-miterlimit="10" stroke-linecap="round" stroke-linejoin="round"/>
<path d="M109.309 117.779H115.976C116.764 117.779 117.37 118.385 117.37 119.173H109.309V117.779Z" fill="#D8EEFB"/>
<path d="M108.279 113.476H109.006C112.098 113.476 114.643 115.961 114.643 119.112H102.703C102.642 115.961 105.188 113.476 108.279 113.476Z" fill="#D8EEFB"/>
<path d="M108.765 119.052H115.856C119.917 119.052 123.251 122.385 123.251 126.446V127.84H108.765V119.052Z" fill="#72C1ED"/>
<path d="M96.4597 127.901H124.038C124.644 127.901 125.19 127.416 125.19 126.749V125.719C125.19 125.112 124.705 124.567 124.038 124.567H96.4597C95.8536 124.567 95.3081 125.052 95.3081 125.719V126.749C95.3687 127.355 95.8536 127.901 96.4597 127.901Z" fill="#D8EEFB"/>
<path d="M100.036 117.293H106.764C110.825 117.293 114.098 120.566 114.098 124.627H96.3989V120.93C96.3989 118.93 98.0354 117.293 100.036 117.293Z" fill="#008FC5"/>
<path d="M15.6027 37.1646C15.6027 37.1646 18.9363 32.6187 13.6631 24.8604" stroke="#FDD79D" stroke-width="6.0612" stroke-miterlimit="10" stroke-linecap="round" stroke-linejoin="round"/>
<path d="M20.876 37.1652C20.876 37.1652 23.9672 31.7708 31.18 34.6195" stroke="#FDD79D" stroke-width="6.0612" stroke-miterlimit="10" stroke-linecap="round" stroke-linejoin="round"/>
<path d="M23.3003 42.8015C23.3003 42.8015 26.3915 37.407 33.6043 40.2558" stroke="#FDD79D" stroke-width="6.0612" stroke-miterlimit="10" stroke-linecap="round" stroke-linejoin="round"/>
<path d="M22.0879 48.6809C22.0879 48.6809 25.1791 43.2864 32.3919 46.1351" stroke="#FDD79D" stroke-width="6.0612" stroke-miterlimit="10" stroke-linecap="round" stroke-linejoin="round"/>
<path d="M18.0879 52.7419C18.0879 52.7419 21.1791 47.3474 28.3919 50.1962" stroke="#FDD79D" stroke-width="6.0612" stroke-miterlimit="10" stroke-linecap="round" stroke-linejoin="round"/>
<path d="M77.1845 75.1078C69.608 88.3212 53.6671 94.14 38.999 92.7459C28.998 91.8367 18.8758 88.8668 10.9963 81.6539C2.08629 73.7138 -2.09594 60.5004 1.60139 48.6204C3.72281 41.7106 8.26871 35.4676 15.4815 32.3764C21.2397 30.1337 27.7252 32.9825 29.9678 38.7406C32.3923 44.8624 28.9374 51.7722 22.6944 53.4694C18.4515 57.5304 19.6638 64.9856 23.3611 69.3497C27.4827 74.3805 34.3925 77.2292 41.0598 78.6839C51.3032 81.3509 62.274 79.8356 69.9717 72.0166L70.396 71.5317L70.5778 71.2893C70.6384 71.2287 70.6991 71.1074 70.6991 71.168C73.4266 67.107 79.609 70.8044 77.1845 75.1078Z" fill="#E65665"/>
<path d="M176.406 37.1646C176.406 37.1646 173.072 32.6187 178.345 24.8604" stroke="#FDD79D" stroke-width="6.0612" stroke-miterlimit="10" stroke-linecap="round" stroke-linejoin="round"/>
<path d="M171.133 37.1652C171.133 37.1652 168.041 31.7708 160.829 34.6195" stroke="#FDD79D" stroke-width="6.0612" stroke-miterlimit="10" stroke-linecap="round" stroke-linejoin="round"/>
<path d="M168.769 42.8015C168.769 42.8015 165.678 37.407 158.465 40.2558" stroke="#FDD79D" stroke-width="6.0612" stroke-miterlimit="10" stroke-linecap="round" stroke-linejoin="round"/>
<path d="M169.92 48.6809C169.92 48.6809 166.829 43.2864 159.616 46.1351" stroke="#FDD79D" stroke-width="6.0612" stroke-miterlimit="10" stroke-linecap="round" stroke-linejoin="round"/>
<path d="M173.921 52.7419C173.921 52.7419 170.83 47.3474 163.617 50.1962" stroke="#FDD79D" stroke-width="6.0612" stroke-miterlimit="10" stroke-linecap="round" stroke-linejoin="round"/>
<path d="M121.249 71.2288C127.916 78.8053 138.584 81.3509 148.221 79.3507C152.646 78.4416 157.434 77.1687 161.192 75.1685C168.708 71.4712 174.587 63.531 170.829 55.5302C170.344 54.6211 169.799 53.8937 169.314 53.5301C168.829 53.1664 168.465 53.1664 168.405 53.2876C154.767 47.3476 162.525 27.5881 176.527 32.4371C183.74 35.5283 188.286 41.8319 190.407 48.6811C194.104 60.561 189.861 73.7745 181.012 81.7146C172.102 89.7154 160.707 92.6248 149.433 92.9884C135.917 93.3521 121.673 87.2303 114.884 75.1685C112.399 70.8045 118.521 67.1071 121.249 71.2288Z" fill="#E65665"/>
<path d="M103.127 96.686H88.6403C85.7916 96.686 83.4277 94.3827 83.4277 91.4734C83.4277 88.6246 85.731 86.2607 88.6403 86.2607H103.127C105.975 86.2607 108.339 88.564 108.339 91.4734C108.339 94.3827 105.975 96.686 103.127 96.686Z" fill="#FDD79D"/>
</svg>
