<svg width="57" height="70" viewBox="0 0 57 70" fill="none" xmlns="http://www.w3.org/2000/svg">
<path d="M48.986 0H7.41726C3.32082 0 0 3.32082 0 7.41725V62.5809C0 66.6774 3.32082 69.9982 7.41726 69.9982H48.986C53.0824 69.9982 56.4032 66.6774 56.4032 62.5809V7.41725C56.4032 3.32082 53.0824 0 48.986 0Z" fill="#F3F3F5"/>
<path d="M5.96261 62.5809V7.41725C5.96261 3.32127 9.28388 0 13.3799 0H7.41725C3.32127 0 0 3.32127 0 7.41725V62.5827C0 66.6787 3.32127 70 7.41725 70H13.3799C9.28388 70 5.96261 66.6787 5.96261 62.5827V62.5809Z" fill="#E8EAEE"/>
<path d="M16.8199 23.7611C16.1673 23.7611 15.5129 23.5113 15.0152 23.0137L10.4107 18.4091C9.41356 17.412 9.41356 15.7969 10.4107 14.7998C11.4078 13.8027 13.0228 13.8027 14.02 14.7998L18.6245 19.4044C19.6216 20.4015 19.6216 22.0166 18.6245 23.0137C18.1269 23.5113 17.4725 23.7611 16.8199 23.7611Z" fill="#87CDAB"/>
<path d="M16.8196 23.761C16.167 23.761 15.5126 23.5112 15.0149 23.0136L12.6233 20.622C11.6262 19.6249 11.6262 18.0098 12.6233 17.0127C13.6204 16.0156 15.2355 16.0156 16.2326 17.0127L16.8196 17.5997L23.936 10.4832C24.9332 9.48607 26.5482 9.48607 27.5453 10.4832C28.5424 11.4803 28.5424 13.0954 27.5453 14.0925L18.6242 23.0136C18.1266 23.5112 17.4722 23.761 16.8196 23.761Z" fill="#5DC097"/>
<path d="M16.8199 41.7857C16.1673 41.7857 15.5129 41.536 15.0152 41.0383L10.4107 36.4338C9.41356 35.4367 9.41356 33.8216 10.4107 32.8245C11.4078 31.8274 13.0228 31.8274 14.02 32.8245L18.6245 37.4291C19.6216 38.4262 19.6216 40.0412 18.6245 41.0383C18.1269 41.536 17.4725 41.7857 16.8199 41.7857Z" fill="#87CDAB"/>
<path d="M16.8196 41.7856C16.167 41.7856 15.5126 41.5359 15.0149 41.0382L12.6233 38.6466C11.6262 37.6495 11.6262 36.0345 12.6233 35.0374C13.6204 34.0402 15.2355 34.0402 16.2326 35.0374L16.8196 35.6243L23.936 28.5078C24.9332 27.5107 26.5482 27.5107 27.5453 28.5078C28.5424 29.505 28.5424 31.12 27.5453 32.1171L18.6242 41.0382C18.1266 41.5359 17.4722 41.7856 16.8196 41.7856Z" fill="#5DC097"/>
<path d="M16.025 52.6864C15.325 52.6864 14.625 52.4203 14.0909 51.8862L12.2079 50.0031C11.1397 48.9349 11.1397 47.205 12.2079 46.1368C13.2761 45.0686 15.0078 45.0686 16.0742 46.1368L17.9572 48.0199C19.0254 49.0881 19.0254 50.818 17.9572 51.8862C17.4231 52.4203 16.7231 52.6864 16.0232 52.6864H16.025Z" fill="#F37783"/>
<path d="M23.6009 60.2623C22.9009 60.2623 22.2009 59.9961 21.6668 59.462L14.0909 51.8862C13.0227 50.818 13.0227 49.0881 14.0909 48.0199C15.1591 46.9517 16.8909 46.9517 17.9573 48.0199L25.5331 55.5957C26.6013 56.6639 26.6013 58.3938 25.5331 59.462C24.999 59.9961 24.299 60.2623 23.599 60.2623H23.6009Z" fill="#E76672"/>
<path d="M18.7592 55.6467C18.7592 56.3467 18.493 57.0467 17.9589 57.5808L16.0759 59.4638C15.0077 60.532 13.2778 60.532 12.2096 59.4638C11.1414 58.3956 11.1414 56.6639 12.2096 55.5975L14.0926 53.7145C15.1608 52.6463 16.8907 52.6463 17.9589 53.7145C18.493 54.2486 18.7592 54.9486 18.7592 55.6485V55.6467Z" fill="#F37783"/>
<path d="M26.335 48.0691C26.335 48.7691 26.0689 49.469 25.5348 50.0031L17.959 57.579C16.8908 58.6472 15.1609 58.6472 14.0927 57.579C13.0245 56.5108 13.0245 54.7791 14.0927 53.7127L21.6685 46.1368C22.7367 45.0686 24.4666 45.0686 25.5348 46.1368C26.0689 46.6709 26.335 47.3709 26.335 48.0709V48.0691Z" fill="#E76672"/>
<path d="M47.0593 13.9651H33.3878C32.8844 13.9651 32.4763 14.3732 32.4763 14.8765C32.4763 15.3799 32.8844 15.788 33.3878 15.788H47.0593C47.5626 15.788 47.9707 15.3799 47.9707 14.8765C47.9707 14.3732 47.5626 13.9651 47.0593 13.9651Z" fill="#1396C6"/>
<path d="M42.0482 19.3916H33.3878C32.8844 19.3916 32.4763 19.7997 32.4763 20.303C32.4763 20.8064 32.8844 21.2145 33.3878 21.2145H42.0482C42.5516 21.2145 42.9596 20.8064 42.9596 20.303C42.9596 19.7997 42.5516 19.3916 42.0482 19.3916Z" fill="#1396C6"/>
<path d="M47.0593 31.375H33.3878C32.8844 31.375 32.4763 31.7831 32.4763 32.2864C32.4763 32.7898 32.8844 33.1979 33.3878 33.1979H47.0593C47.5626 33.1979 47.9707 32.7898 47.9707 32.2864C47.9707 31.7831 47.5626 31.375 47.0593 31.375Z" fill="#1396C6"/>
<path d="M42.0482 36.8018H33.3878C32.8844 36.8018 32.4763 37.2098 32.4763 37.7132C32.4763 38.2166 32.8844 38.6246 33.3878 38.6246H42.0482C42.5516 38.6246 42.9596 38.2166 42.9596 37.7132C42.9596 37.2098 42.5516 36.8018 42.0482 36.8018Z" fill="#1396C6"/>
<path d="M47.0593 48.7837H33.3878C32.8844 48.7837 32.4763 49.1918 32.4763 49.6951C32.4763 50.1985 32.8844 50.6066 33.3878 50.6066H47.0593C47.5626 50.6066 47.9707 50.1985 47.9707 49.6951C47.9707 49.1918 47.5626 48.7837 47.0593 48.7837Z" fill="#1396C6"/>
<path d="M42.0482 54.2104H33.3878C32.8844 54.2104 32.4763 54.6185 32.4763 55.1219C32.4763 55.6253 32.8844 56.0333 33.3878 56.0333H42.0482C42.5516 56.0333 42.9596 55.6253 42.9596 55.1219C42.9596 54.6185 42.5516 54.2104 42.0482 54.2104Z" fill="#1396C6"/>
</svg>
