<svg width="57" height="70" viewBox="0 0 57 70" fill="none" xmlns="http://www.w3.org/2000/svg">
<path d="M45.6141 0.611369L19.7527 3.24284C16.4341 3.58051 14.0176 6.54447 14.3553 9.86303L17.9472 45.1631C18.2849 48.4816 21.2488 50.8981 24.5674 50.5605L50.4288 47.929C53.7474 47.5913 56.1638 44.6273 55.8262 41.3088L52.2343 6.00874C51.8966 2.69018 48.9327 0.273697 45.6141 0.611369Z" fill="#F5EDD7"/>
<path d="M37.0531 5.43572L12.1953 13.0403C9.0055 14.0161 7.21074 17.3929 8.18655 20.5827L18.5665 54.5128C19.5423 57.7026 22.9192 59.4974 26.109 58.5215L50.9668 50.917C54.1565 49.9412 55.9513 46.5643 54.9755 43.3745L44.5955 9.44443C43.6197 6.25466 40.2428 4.4599 37.0531 5.43572Z" fill="#F3E1B4"/>
<path d="M27.5737 12.7545L5.19872 25.987C2.32754 27.685 1.37651 31.3891 3.07451 34.2602L21.1365 64.8014C22.8345 67.6725 26.5385 68.6236 29.4097 66.9256L51.7847 53.6931C54.6558 51.995 55.6069 48.291 53.9089 45.4198L35.8469 14.8787C34.1489 12.0075 30.4449 11.0565 27.5737 12.7545Z" fill="#F5EDD7"/>
<path d="M39.6223 60.8878L29.2938 66.9946C26.4229 68.6928 22.7196 67.7423 21.0214 64.8696L2.96196 34.3302C1.26376 31.4576 2.21426 27.7526 5.08515 26.0562L10.0969 23.0918C10.2238 29.6589 12.0578 36.434 15.7505 42.6784C21.3882 52.2116 30.2019 58.5494 39.6223 60.8878Z" fill="#F3E1B4"/>
<path d="M29.5537 38.7304L16.8795 46.226C16.4268 46.4937 16.2768 47.0777 16.5446 47.5303C16.8123 47.983 17.3963 48.133 17.8489 47.8653L30.5232 40.3697C30.9759 40.102 31.1258 39.518 30.8581 39.0653C30.5904 38.6127 30.0064 38.4627 29.5537 38.7304Z" fill="#C4C8CE"/>
<path d="M39.6791 32.741L33.5135 36.3873C33.0608 36.655 32.9109 37.239 33.1786 37.6917C33.4463 38.1444 34.0303 38.2943 34.483 38.0266L40.6486 34.3803C41.1013 34.1126 41.2512 33.5286 40.9835 33.0759C40.7158 32.6232 40.1318 32.4733 39.6791 32.741Z" fill="#9BABBF"/>
<path d="M34.0801 46.3818L21.4058 53.8773C20.9532 54.145 20.8032 54.729 21.0709 55.1817C21.3386 55.6344 21.9226 55.7843 22.3753 55.5166L35.0496 48.0211C35.5022 47.7534 35.6522 47.1694 35.3845 46.7167C35.1168 46.264 34.5328 46.1141 34.0801 46.3818Z" fill="#9BABBF"/>
<path d="M44.2055 40.3941L38.0399 44.0404C37.5872 44.3081 37.4372 44.8921 37.705 45.3448C37.9727 45.7975 38.5567 45.9474 39.0093 45.6797L45.175 42.0334C45.6276 41.7657 45.7776 41.1817 45.5099 40.729C45.2421 40.2763 44.6581 40.1264 44.2055 40.3941Z" fill="#C4C8CE"/>
<path d="M31.0257 53.3535L23.6685 57.7045C23.2158 57.9722 23.0659 58.5562 23.3336 59.0089C23.6013 59.4615 24.1853 59.6115 24.638 59.3438L31.9951 54.9928C32.4478 54.7251 32.5978 54.1411 32.3301 53.6884C32.0623 53.2357 31.4783 53.0858 31.0257 53.3535Z" fill="#C4C8CE"/>
<path d="M41.081 47.4078L34.9154 51.0541C34.4627 51.3218 34.3127 51.9058 34.5804 52.3585C34.8482 52.8112 35.4322 52.9611 35.8848 52.6934L42.0504 49.0471C42.5031 48.7793 42.6531 48.1953 42.3853 47.7427C42.1176 47.29 41.5336 47.14 41.081 47.4078Z" fill="#9BABBF"/>
<path d="M30.2393 45.7054L42.9135 38.2098C43.3662 37.9421 43.5161 37.3581 43.2484 36.9054C42.9807 36.4528 42.3967 36.3028 41.944 36.5705L29.2698 44.0661C28.8171 44.3338 28.6672 44.9178 28.9349 45.3705C29.2026 45.8231 29.7866 45.9731 30.2393 45.7054Z" fill="#C4C8CE"/>
<path d="M20.1117 51.6923L26.2773 48.046C26.73 47.7783 26.8799 47.1943 26.6122 46.7416C26.3445 46.2889 25.7605 46.139 25.3078 46.4067L19.1422 50.053C18.6895 50.3208 18.5396 50.9048 18.8073 51.3574C19.075 51.8101 19.659 51.9601 20.1117 51.6923Z" fill="#C4C8CE"/>
<path d="M24.9591 29.7049L18.1963 24.5468C17.9106 24.3299 17.5226 24.307 17.2123 24.4886C16.9019 24.6702 16.7361 25.0229 16.789 25.3791L18.0517 33.7908C18.0517 33.7908 18.0517 33.7908 18.0517 33.7925L18.6653 37.8855C18.7376 38.3669 19.1873 38.6985 19.6687 38.6262C20.1502 38.5539 20.4817 38.1042 20.4094 37.6228L19.8856 34.1294L24.3736 31.4754L27.1828 33.618C27.4773 33.8419 27.867 33.8525 28.1668 33.6762C28.262 33.6197 28.3484 33.5457 28.419 33.4522C28.7135 33.0642 28.6394 32.5123 28.2532 32.216L24.9626 29.7066L24.9591 29.7049ZM19.6017 32.246L18.854 27.266L22.8571 30.3203L19.6 32.246H19.6017Z" fill="#CF4D5B"/>
<path d="M26.4724 23.3758L25.4214 23.9983L24.7989 22.9473C24.5503 22.5276 24.0107 22.3901 23.591 22.6369C23.1713 22.8838 23.0337 23.4252 23.2806 23.8449L23.9031 24.8959L22.8521 25.5184C22.4324 25.7671 22.2948 26.3067 22.5417 26.7264C22.7886 27.1461 23.33 27.2836 23.7497 27.0367L24.8007 26.4142L25.4232 27.4653C25.6718 27.885 26.2115 28.0225 26.6312 27.7756C27.0509 27.5287 27.1884 26.9874 26.9415 26.5677L26.319 25.5166L27.37 24.8942C27.7897 24.6455 27.9273 24.1059 27.6804 23.6862C27.4335 23.2665 26.8921 23.1289 26.4724 23.3758Z" fill="#CF4D5B"/>
</svg>
