<svg width="62" height="70" viewBox="0 0 62 70" fill="none" xmlns="http://www.w3.org/2000/svg">
<path d="M3.33643 29.7407H12.2604C14.1016 29.7407 15.5951 31.236 15.5951 33.0753V56.4578H2.43599C1.0908 56.4578 0 55.3652 0 54.0219V33.0772C0 31.236 1.49526 29.7426 3.3346 29.7426L3.33643 29.7407Z" fill="#F1AEC8"/>
<path d="M12.2605 29.7407H7.18359C9.02477 29.7407 10.5182 31.2342 10.5182 33.0753V56.4578H15.5952V33.0753C15.5952 31.2342 14.1017 29.7407 12.2605 29.7407Z" fill="#EF99B5"/>
<path d="M18.9316 24.2393H27.8557C29.6968 24.2393 31.1903 25.7345 31.1903 27.5739V56.4561H15.5952V27.5739C15.5952 25.7327 17.0905 24.2393 18.9298 24.2393H18.9316Z" fill="#F4E287"/>
<path d="M27.8555 24.2393H22.7786C24.6197 24.2393 26.1132 25.7327 26.1132 27.5739V56.4561H31.1901V27.5739C31.1901 25.7327 29.6967 24.2393 27.8555 24.2393Z" fill="#F2CA76"/>
<path d="M34.5266 18.7393H43.4506C45.2918 18.7393 46.7853 20.2345 46.7853 22.0739V54.0217C46.7853 55.3669 45.6926 56.4577 44.3493 56.4577H31.1902V22.0739C31.1902 20.2327 32.6854 18.7393 34.5248 18.7393H34.5266Z" fill="#00B6A8"/>
<path d="M43.4524 18.7393H38.3755C40.2167 18.7393 41.7101 20.2327 41.7101 22.0739V56.4577H44.3511C45.6963 56.4577 46.7871 55.3669 46.7871 54.0217V22.0739C46.7871 20.2327 45.2936 18.7393 43.4524 18.7393Z" fill="#00A598"/>
<path d="M17.8113 8.92768L11.0963 15.822C10.7687 15.2217 10.3185 14.6983 9.77856 14.2883L16.3691 7.52393C16.7461 8.08762 17.2384 8.5653 17.8113 8.92768Z" fill="#88A2B6"/>
<path d="M33.8732 4.83717C33.8732 5.18308 33.9098 5.51983 33.9793 5.84378H25.1194C25.1889 5.51983 25.2256 5.18308 25.2256 4.83717C25.2256 4.49127 25.1889 4.15451 25.1194 3.83057H33.9793C33.9098 4.15451 33.8732 4.49127 33.8732 4.83717Z" fill="#88A2B6"/>
<path d="M6.85026 22.9688C9.52076 22.9688 11.6856 20.804 11.6856 18.1335C11.6856 15.463 9.52076 13.2981 6.85026 13.2981C4.17977 13.2981 2.01489 15.463 2.01489 18.1335C2.01489 20.804 4.17977 22.9688 6.85026 22.9688Z" fill="#77D0F6"/>
<path d="M20.3901 9.67073C23.0606 9.67073 25.2254 7.50586 25.2254 4.83536C25.2254 2.16487 23.0606 0 20.3901 0C17.7196 0 15.5547 2.16487 15.5547 4.83536C15.5547 7.50586 17.7196 9.67073 20.3901 9.67073Z" fill="#77D0F6"/>
<path d="M38.7084 9.67073C41.3789 9.67073 43.5437 7.50586 43.5437 4.83536C43.5437 2.16487 41.3789 0 38.7084 0C36.0379 0 33.873 2.16487 33.873 4.83536C33.873 7.50586 36.0379 9.67073 38.7084 9.67073Z" fill="#77D0F6"/>
<path d="M59.3393 68.0233C56.537 70.8256 51.9363 70.6209 49.3939 67.583L41.2224 57.8195L49.1372 49.9048L58.9007 58.0762C61.9386 60.6186 62.1433 65.221 59.3409 68.0217L59.3393 68.0233Z" fill="#E6B397"/>
<path d="M47.0249 64.7532C48.9988 63.9425 50.8475 62.7371 52.4509 61.1353C54.0543 59.5319 55.2597 57.6832 56.0687 55.7093L49.1352 49.9065L41.2205 57.8213L47.0233 64.7548L47.0249 64.7532Z" fill="#DB9973"/>
<path d="M38.2607 56.1091C43.6539 56.1091 48.0258 51.7371 48.0258 46.344C48.0258 40.9508 43.6539 36.5789 38.2607 36.5789C32.8676 36.5789 28.4956 40.9508 28.4956 46.344C28.4956 51.7371 32.8676 56.1091 38.2607 56.1091Z" fill="#77D0F6"/>
<path d="M35.4471 46.344C35.4471 42.6969 36.5356 39.326 38.381 36.5821C38.342 36.5821 38.3014 36.5789 38.2624 36.5789C32.869 36.5789 28.4973 40.9505 28.4973 46.344C28.4973 51.7374 32.869 56.1091 38.2624 56.1091C38.3031 56.1091 38.342 56.1058 38.381 56.1058C36.5356 53.362 35.4471 49.9894 35.4471 46.344Z" fill="#00B5EF"/>
<path d="M38.2608 29.751C29.0968 29.751 21.6677 37.18 21.6677 46.344C21.6677 55.5081 29.0968 62.9371 38.2608 62.9371C47.4248 62.9371 54.8538 55.5081 54.8538 46.344C54.8538 37.18 47.4248 29.751 38.2608 29.751ZM38.2608 56.1092C32.8673 56.1092 28.4957 51.7375 28.4957 46.344C28.4957 40.9506 32.8673 36.5789 38.2608 36.5789C43.6543 36.5789 48.0259 40.9506 48.0259 46.344C48.0259 51.7375 43.6543 56.1092 38.2608 56.1092Z" fill="#88A2B6"/>
<path d="M38.8554 58.7731C38.8554 57.6148 39.3931 56.5816 40.233 55.9091C39.5961 56.039 38.9366 56.1072 38.2608 56.1072C32.8673 56.1072 28.4957 51.7356 28.4957 46.3421C28.4957 40.9487 32.5489 36.9019 37.6662 36.5965C36.2236 36.1026 35.1888 34.7364 35.1888 33.1281C35.1888 31.6303 36.0855 30.3437 37.3722 29.7734C28.6208 30.2348 21.6677 37.477 21.6677 46.3421C21.6677 55.2073 29.0968 62.9352 38.2608 62.9352C39.6611 62.9352 41.0209 62.7614 42.3189 62.4332C40.3873 62.3292 38.8554 60.7307 38.8554 58.7731Z" fill="#7092AD"/>
</svg>
