<svg width="198" height="203" viewBox="0 0 198 203" fill="none" xmlns="http://www.w3.org/2000/svg">
<path d="M162.886 195.56C163.098 195.832 163.34 196.104 163.58 196.375C163.309 196.104 163.068 195.832 162.826 195.532L162.886 195.56Z" fill="#66CBB0"/>
<path d="M195.944 174.328C196.125 174.661 196.276 175.022 196.396 175.385L196.367 175.354C181.074 150.471 156.523 131.861 127.539 124.352L115.204 99.0771C110.438 89.275 114.509 77.4205 124.312 72.6251C127.117 71.2683 130.073 70.6346 132.999 70.6346C140.296 70.6346 147.354 74.707 150.763 81.7343L195.944 174.328Z" fill="url(#paint0_linear_16_13860)"/>
<path d="M197.21 177.646V177.736C197.12 177.344 197 176.953 196.849 176.56C197 176.923 197.09 177.283 197.21 177.646Z" fill="#66CBB0"/>
<path d="M160.354 191.259L127.508 123.94C118.309 121.526 108.628 120.26 98.6739 120.26C88.9929 120.26 79.5827 121.467 70.5647 123.759H70.5339L38.6243 189.239C52.4083 171.112 74.1833 159.408 98.6739 159.408C124.281 159.408 146.932 172.197 160.565 191.742L160.685 191.863C160.565 191.681 160.443 191.471 160.354 191.259Z" fill="url(#paint1_linear_16_13860)"/>
<path d="M197.512 187.086C197.12 188.897 196.486 190.676 195.583 192.335C195.401 192.666 195.22 193.028 195.009 193.36C194.708 193.873 194.376 194.356 194.013 194.807C193.681 195.29 193.29 195.743 192.898 196.195C192.777 196.346 192.656 196.466 192.535 196.586C192.203 196.949 191.872 197.251 191.54 197.583C191.208 197.883 190.816 198.186 190.454 198.517C189.791 199.03 189.067 199.544 188.313 199.996C187.83 200.267 187.318 200.537 186.805 200.779C184.03 202.137 181.074 202.8 178.149 202.8C177.696 202.8 177.244 202.77 176.792 202.739C176.338 202.71 175.887 202.681 175.433 202.59C174.983 202.529 174.56 202.469 174.107 202.379C173.656 202.288 173.232 202.167 172.78 202.046C172.357 201.926 171.936 201.775 171.544 201.654L171.363 201.593C171.061 201.473 170.729 201.352 170.398 201.202C170.096 201.081 169.795 200.931 169.493 200.779C169.251 200.69 169.071 200.568 168.829 200.448L168.769 200.418C168.437 200.235 168.135 200.056 167.803 199.875C167.412 199.634 167.049 199.363 166.688 199.121C166.295 198.849 165.934 198.578 165.602 198.276C165.269 198.005 164.938 197.734 164.637 197.432L164.516 197.34C164.216 197.04 163.913 196.739 163.611 196.407L163.581 196.376C163.341 196.105 163.098 195.832 162.887 195.561L162.827 195.533C162.164 194.416 161.439 193.36 160.715 192.275C160.595 192.093 160.474 191.882 160.385 191.671L127.539 124.352C156.523 131.861 181.074 150.47 196.366 175.353L196.396 175.384C196.546 175.776 196.728 176.169 196.849 176.56C197 176.953 197.12 177.344 197.21 177.736C197.332 178.128 197.421 178.49 197.483 178.851C197.573 179.275 197.663 179.697 197.724 180.119C198.086 182.472 197.994 184.824 197.512 187.086Z" fill="url(#paint2_linear_16_13860)"/>
<path d="M70.5637 124.17L38.6541 189.651L38.6237 189.679C36.7535 192.123 35.0341 194.687 33.4961 197.371H33.4656C33.0148 197.794 32.5612 198.215 32.0483 198.578L31.9579 198.639C31.5956 198.969 31.1733 199.241 30.7814 199.481C30.0879 199.965 29.3336 200.418 28.5494 200.779C28.0971 201.021 27.6445 201.202 27.162 201.383C26.771 201.564 26.3478 201.715 25.9264 201.836C25.1421 202.077 24.3579 202.288 23.5738 202.439C23.0911 202.56 22.5773 202.618 22.0656 202.649C21.8243 202.71 21.583 202.739 21.3113 202.739C17.9336 202.981 14.4647 202.379 11.2071 200.779C1.37415 195.984 -2.69666 184.131 2.09939 174.328L3.33582 171.795C18.8684 148.51 42.6958 131.228 70.5637 124.17Z" fill="url(#paint3_linear_16_13860)"/>
<path d="M33.4969 197.37C35.0349 194.687 36.7544 192.123 38.6245 189.679L37.6594 191.67C36.5734 193.872 35.1561 195.772 33.4969 197.37Z" fill="#4DA6CC"/>
<path d="M116.801 29.4045L70.596 124.17H70.5652C42.6974 131.228 18.8699 148.51 3.33734 171.795L81.2427 12.0623C84.6807 5.03389 91.7089 0.932831 99.0372 0.932831C101.963 0.932831 104.919 1.5952 107.694 2.95306C117.525 7.74849 121.598 19.5712 116.801 29.4045Z" fill="url(#paint4_linear_16_13860)"/>
<path d="M148.827 60.203C147.488 60.203 146.376 59.7614 145.492 58.8783C144.609 57.9963 144.168 56.8844 144.168 55.5437V43.3034H131.928C130.587 43.3034 129.474 42.8459 128.593 41.933C127.709 41.019 127.268 39.8922 127.268 38.5526C127.268 37.2142 127.709 36.1023 128.593 35.218C129.474 34.3361 130.587 33.8933 131.928 33.8933H144.168V21.652C144.168 20.3742 144.639 19.2771 145.584 18.3643C146.528 17.4502 147.609 16.9938 148.827 16.9938C150.227 16.9938 151.353 17.4365 152.207 18.3185C153.06 19.2016 153.486 20.3135 153.486 21.652V33.8933H165.728C167.005 33.8933 168.117 34.3498 169.061 35.2638C170.005 36.1778 170.477 37.2737 170.477 38.5526C170.477 39.8922 170.005 41.019 169.061 41.933C168.117 42.8459 167.005 43.3034 165.728 43.3034H153.486V55.5437C153.486 56.8844 153.06 57.9963 152.207 58.8783C151.353 59.7614 150.227 60.203 148.827 60.203Z" fill="#16191E"/>
<defs>
<linearGradient id="paint0_linear_16_13860" x1="154.803" y1="70.6346" x2="154.803" y2="175.385" gradientUnits="userSpaceOnUse">
<stop stop-color="#FBB630"/>
<stop offset="0.5" stop-color="#F8A132"/>
<stop offset="1" stop-color="#B49A4D"/>
</linearGradient>
<linearGradient id="paint1_linear_16_13860" x1="69.0776" y1="151.779" x2="125.492" y2="151.57" gradientUnits="userSpaceOnUse">
<stop stop-color="#50A5CA"/>
<stop offset="1" stop-color="#5C9C6F"/>
</linearGradient>
<linearGradient id="paint2_linear_16_13860" x1="162.742" y1="124.352" x2="162.742" y2="202.8" gradientUnits="userSpaceOnUse">
<stop stop-color="#C89945"/>
<stop offset="1" stop-color="#259D84"/>
</linearGradient>
<linearGradient id="paint3_linear_16_13860" x1="65.3544" y1="151.545" x2="13.2371" y2="196.827" gradientUnits="userSpaceOnUse">
<stop offset="0.117658" stop-color="#6F92B9"/>
<stop offset="1" stop-color="#3DADD7"/>
</linearGradient>
<linearGradient id="paint4_linear_16_13860" x1="61.0753" y1="0.932834" x2="33.3914" y2="194.226" gradientUnits="userSpaceOnUse">
<stop stop-color="#E75563"/>
<stop offset="0.497456" stop-color="#CF6281"/>
<stop offset="0.727279" stop-color="#8587AC"/>
<stop offset="0.927495" stop-color="#3BADD8"/>
</linearGradient>
</defs>
</svg>
