<svg width="52" height="70" viewBox="0 0 52 70" fill="none" xmlns="http://www.w3.org/2000/svg">
<path d="M39.4345 8.68945H11.6475C5.21475 8.68945 0 13.9042 0 20.3369V58.3525C0 64.7852 5.21475 70 11.6475 70H39.4345C45.8673 70 51.082 64.7852 51.082 58.3525V20.3369C51.082 13.9042 45.8673 8.68945 39.4345 8.68945Z" fill="#DEBEAA"/>
<path d="M38.9762 12.7661H12.1054C7.66533 12.7661 4.06592 16.3655 4.06592 20.8056V57.8836C4.06592 62.3237 7.66533 65.9231 12.1054 65.9231H38.9762C43.4163 65.9231 47.0157 62.3237 47.0157 57.8836V20.8056C47.0157 16.3655 43.4163 12.7661 38.9762 12.7661Z" fill="#F5EDD7"/>
<path d="M28.5803 70.0001H11.6475C5.21409 70.0001 0 64.7842 0 58.3508V20.337C0 13.9036 5.21409 8.68774 11.6475 8.68774H21.04C20.917 10.0354 20.8118 11.3955 20.7262 12.7663C20.5212 15.9625 20.416 19.2175 20.416 22.5189C20.416 38.4927 22.8707 53.3827 27.1061 65.9215C27.5767 67.3101 28.0669 68.6703 28.5803 70.0001Z" fill="#D1A486"/>
<path d="M27.106 65.9213H12.1037C7.66327 65.9213 4.06421 62.3222 4.06421 57.8836V20.8038C4.06421 16.3652 7.66327 12.7661 12.1037 12.7661H20.7261C20.5211 15.9623 20.4159 19.2173 20.4159 22.5187C20.4159 38.4925 22.8706 53.3825 27.106 65.9213Z" fill="#F3E1B4"/>
<path d="M33.6963 6.53965H29.6552C29.3682 6.53965 29.1685 6.23839 29.2951 5.97991C29.6088 5.3364 29.7621 4.60197 29.7015 3.82476C29.5411 1.78191 27.8672 0.136571 25.8226 0.00822404C23.4054 -0.141514 21.3982 1.77299 21.3982 4.1581C21.3982 4.81053 21.5479 5.42731 21.8171 5.97635C21.9436 6.23661 21.7494 6.53787 21.4588 6.53787H17.4176C16.7171 6.53787 16.1484 7.10651 16.1484 7.80707V12.4222C16.1484 14.0372 17.4586 15.3474 19.0737 15.3474H32.0421C33.6571 15.3474 34.9673 14.0372 34.9673 12.4222V7.80707C34.9673 7.10651 34.3986 6.53787 33.6981 6.53787L33.6963 6.53965Z" fill="#D9EBF7"/>
<path d="M30.2415 10.1885H20.8722C20.3415 10.1885 19.9114 10.6186 19.9114 11.1493V11.1511C19.9114 11.6817 20.3415 12.1119 20.8722 12.1119H30.2415C30.7722 12.1119 31.2023 11.6817 31.2023 11.1511V11.1493C31.2023 10.6186 30.7722 10.1885 30.2415 10.1885Z" fill="#1CA9E1"/>
<path d="M15.3624 31.2106C17.7862 31.2106 19.7511 29.2457 19.7511 26.8219C19.7511 24.398 17.7862 22.4331 15.3624 22.4331C12.9385 22.4331 10.9736 24.398 10.9736 26.8219C10.9736 29.2457 12.9385 31.2106 15.3624 31.2106Z" fill="#38B98D"/>
<path d="M15.3624 44.694C17.7862 44.694 19.7511 42.7291 19.7511 40.3052C19.7511 37.8814 17.7862 35.9165 15.3624 35.9165C12.9385 35.9165 10.9736 37.8814 10.9736 40.3052C10.9736 42.7291 12.9385 44.694 15.3624 44.694Z" fill="white"/>
<path d="M15.3624 58.1776C17.7862 58.1776 19.7511 56.2127 19.7511 53.7889C19.7511 51.3651 17.7862 49.4001 15.3624 49.4001C12.9385 49.4001 10.9736 51.3651 10.9736 53.7889C10.9736 56.2127 12.9385 58.1776 15.3624 58.1776Z" fill="#F99F1B"/>
<path d="M39.2173 27.5973H26.6054C26.1134 27.5973 25.7141 27.198 25.7141 26.706C25.7141 26.214 26.1134 25.8147 26.6054 25.8147H39.2173C39.7093 25.8147 40.1086 26.214 40.1086 26.706C40.1086 27.198 39.7093 27.5973 39.2173 27.5973Z" fill="#9BABBF"/>
<path d="M39.2173 41.1967H26.6054C26.1134 41.1967 25.7141 40.7974 25.7141 40.3054C25.7141 39.8134 26.1134 39.4141 26.6054 39.4141H39.2173C39.7093 39.4141 40.1086 39.8134 40.1086 40.3054C40.1086 40.7974 39.7093 41.1967 39.2173 41.1967Z" fill="#C4C8CE"/>
<path d="M39.2173 54.6803H26.6054C26.1134 54.6803 25.7141 54.281 25.7141 53.789C25.7141 53.297 26.1134 52.8977 26.6054 52.8977H39.2173C39.7093 52.8977 40.1086 53.297 40.1086 53.789C40.1086 54.281 39.7093 54.6803 39.2173 54.6803Z" fill="#9BABBF"/>
<path d="M16.0379 28.7505C15.8008 28.7505 15.5744 28.6561 15.4068 28.4903L13.4941 26.5776C13.1465 26.23 13.1465 25.6649 13.4941 25.3173C13.8417 24.9697 14.4068 24.9697 14.7544 25.3173L16.0361 26.599L22.4124 20.2226C22.76 19.875 23.3251 19.875 23.6727 20.2226C24.0203 20.5702 24.0203 21.1353 23.6727 21.4829L16.6671 28.4885C16.4996 28.6561 16.2732 28.7488 16.0361 28.7488L16.0379 28.7505Z" fill="#5E6E7A"/>
</svg>
