<svg width="30" height="23" viewBox="0 0 30 23" fill="none" xmlns="http://www.w3.org/2000/svg">
<path d="M12.0123 1.04505C12.0123 1.04505 7.40467 1.2865 4.68837 0.0390171C4.36644 -0.101828 4.00427 0.159747 4.06463 0.52192C4.24572 1.60844 4.84933 3.39919 6.80105 3.98269L12.0123 1.04505Z" fill="#72C1ED"/>
<path d="M18.0079 1.04481C18.0079 1.04481 22.6156 1.28626 25.3319 0.0387729C25.6538 -0.102072 26.016 0.159502 25.9556 0.521676C25.7745 1.6082 25.1709 3.39895 23.2192 3.98245L18.0079 1.04481Z" fill="#72C1ED"/>
<path d="M20.7648 22.9162H9.17528C5.795 22.9162 3.03845 20.1797 3.03845 16.7793L4.50726 10.5821C4.50726 4.78736 9.21552 0.0791016 15.0103 0.0791016C20.8051 0.0791016 25.5133 4.78736 25.5133 10.5821L26.8815 16.7793C26.9017 20.1797 24.1653 22.9162 20.7648 22.9162Z" fill="#E65665"/>
<path d="M24.9498 15.8738C23.4005 19.8577 15.1912 19.2541 15.1912 19.2541C15.1912 19.2541 6.98196 19.8577 5.43267 15.8738C3.88337 11.8899 9.13488 11.6887 9.13488 11.6887C9.13488 11.6887 5.97593 8.79132 7.28378 6.01466C8.04837 4.38487 10.6238 4.66657 12.6359 5.20983C14.3059 5.65248 16.0765 5.65248 17.7466 5.20983C19.7586 4.68669 22.3341 4.38487 23.0987 6.01466C24.3864 8.81144 21.2476 11.6887 21.2476 11.6887C21.2476 11.6887 26.4991 11.8899 24.9498 15.8738Z" fill="#FDD79D"/>
<path d="M18.4309 15.6527C18.4309 15.6527 17.8675 16.6587 16.8011 17.3026C16.2981 17.6044 15.7146 17.8257 15.0104 17.8257C14.1452 17.8257 13.441 17.4837 12.8977 17.0611C12.0526 16.4374 11.61 15.6326 11.61 15.6326H18.4309V15.6527Z" fill="black"/>
<path d="M16.8211 17.3023C16.3181 17.6041 15.7346 17.8254 15.0304 17.8254C14.1652 17.8254 13.461 17.4834 12.9177 17.0609C13.3403 16.5981 14.1451 15.9743 14.8091 16.6383C14.8091 16.6584 15.5938 15.753 16.8211 17.3023Z" fill="#FF7464"/>
<path d="M11.7104 14.1835C12.2438 14.1835 12.6762 13.4809 12.6762 12.6141C12.6762 11.7473 12.2438 11.0447 11.7104 11.0447C11.177 11.0447 10.7446 11.7473 10.7446 12.6141C10.7446 13.4809 11.177 14.1835 11.7104 14.1835Z" fill="black"/>
<path d="M18.2502 14.1835C18.7836 14.1835 19.216 13.4809 19.216 12.6141C19.216 11.7473 18.7836 11.0447 18.2502 11.0447C17.7168 11.0447 17.2844 11.7473 17.2844 12.6141C17.2844 13.4809 17.7168 14.1835 18.2502 14.1835Z" fill="black"/>
<path d="M20.9802 14.3121C21.918 13.9049 22.567 13.3186 22.4298 13.0026C22.2926 12.6866 21.4211 12.7605 20.4833 13.1677C19.5455 13.5749 18.8965 14.1612 19.0337 14.4772C19.1709 14.7932 20.0424 14.7193 20.9802 14.3121Z" fill="#FFB18A"/>
<path d="M11.112 14.4786C11.2492 14.1626 10.6002 13.5764 9.66242 13.1692C8.72463 12.762 7.85317 12.688 7.71596 13.004C7.57876 13.32 8.22776 13.9063 9.16555 14.3135C10.1033 14.7207 10.9748 14.7946 11.112 14.4786Z" fill="#FFB18A"/>
<path d="M7.08251 3.72095L4.92958 9.29439C4.80886 9.35475 4.68814 9.39499 4.56741 9.43523C2.01208 10.2401 0.0603623 7.8457 0 7.76521C3.01811 7.4634 7.08251 3.72095 7.08251 3.72095Z" fill="#E65665"/>
<path d="M22.9175 3.72095C22.9175 3.72095 26.9819 7.48352 30 7.78533C30 7.78533 27.8269 10.5016 25.0704 9.31451L22.9175 3.72095Z" fill="#E65665"/>
<path d="M12.0121 12.1514C12.1899 12.1514 12.3341 12.0073 12.3341 11.8295C12.3341 11.6517 12.1899 11.5076 12.0121 11.5076C11.8343 11.5076 11.6902 11.6517 11.6902 11.8295C11.6902 12.0073 11.8343 12.1514 12.0121 12.1514Z" fill="white"/>
<path d="M18.5915 12.1514C18.7693 12.1514 18.9134 12.0073 18.9134 11.8295C18.9134 11.6517 18.7693 11.5076 18.5915 11.5076C18.4137 11.5076 18.2695 11.6517 18.2695 11.8295C18.2695 12.0073 18.4137 12.1514 18.5915 12.1514Z" fill="white"/>
<path d="M10.6643 15.1092C13.0535 15.1092 14.9903 13.1724 14.9903 10.7832C14.9903 8.39407 13.0535 6.45728 10.6643 6.45728C8.27518 6.45728 6.33838 8.39407 6.33838 10.7832C6.33838 13.1724 8.27518 15.1092 10.6643 15.1092Z" stroke="white" stroke-width="0.402415" stroke-miterlimit="10"/>
<path d="M19.2963 15.1092C21.6855 15.1092 23.6223 13.1724 23.6223 10.7832C23.6223 8.39407 21.6855 6.45728 19.2963 6.45728C16.9071 6.45728 14.9703 8.39407 14.9703 10.7832C14.9703 13.1724 16.9071 15.1092 19.2963 15.1092Z" stroke="white" stroke-width="0.402415" stroke-miterlimit="10"/>
<path d="M4.58755 9.43517C2.03222 10.24 0.0805039 7.84563 0.0201416 7.76515C0.0805039 7.78527 1.48896 8.56998 3.44067 7.76515C5.43262 6.9402 4.58755 9.43517 4.58755 9.43517Z" fill="#FDD79D"/>
<path d="M25.4125 9.43517C27.9679 10.24 29.9196 7.84563 29.98 7.76515C29.9196 7.78527 28.5111 8.56998 26.5594 7.76515C24.5675 6.9402 25.4125 9.43517 25.4125 9.43517Z" fill="#FDD79D"/>
<path d="M13.4811 3.98253C13.4811 3.98253 11.1672 5.81352 12.9378 6.09521C14.6883 6.39702 15.5535 5.43123 15.5535 5.43123C15.5535 5.43123 14.9096 6.55799 15.795 6.63847C16.6803 6.71896 20.7245 3.9624 20.7245 3.9624" fill="#E65665"/>
<path d="M15.1911 12.6143H14.7887C14.4064 12.6143 14.1046 12.3125 14.1046 11.9302V10.7229C14.1046 10.3406 14.4064 10.0388 14.7887 10.0388H15.1911C15.5734 10.0388 15.8752 10.3406 15.8752 10.7229V11.9302C15.8551 12.3125 15.5533 12.6143 15.1911 12.6143Z" fill="white"/>
<path d="M7.53401 19.546C7.75531 19.0363 7.18275 18.2966 6.25515 17.8939C5.32755 17.4911 4.39618 17.5777 4.17487 18.0874C3.95357 18.5971 4.52614 19.3368 5.45374 19.7395C6.38134 20.1423 7.31271 20.0557 7.53401 19.546Z" fill="#FB817A"/>
<path d="M7.25337 21.2311C7.35959 20.9865 7.09038 20.6339 6.65207 20.4435C6.21375 20.2532 5.77232 20.2973 5.66609 20.5419C5.55986 20.7865 5.82908 21.1391 6.26739 21.3295C6.70571 21.5198 7.14714 21.4758 7.25337 21.2311Z" fill="#FB817A"/>
<path d="M24.7393 19.7307C25.6669 19.3279 26.2394 18.5882 26.0181 18.0785C25.7968 17.5689 24.8655 17.4822 23.9379 17.885C23.0103 18.2877 22.4377 19.0274 22.659 19.5371C22.8803 20.0468 23.8117 20.1334 24.7393 19.7307Z" fill="#FB817A"/>
<path d="M23.9028 21.3287C24.3411 21.1384 24.6103 20.7858 24.5041 20.5411C24.3979 20.2965 23.9564 20.2524 23.5181 20.4427C23.0798 20.6331 22.8106 20.9857 22.9168 21.2303C23.0231 21.475 23.4645 21.519 23.9028 21.3287Z" fill="#FB817A"/>
</svg>
